<?xml version="1.0" encoding="utf-8"?>
<!-- Generator: Adobe Illustrator 17.1.0, SVG Export Plug-In . SVG Version: 6.00 Build 0)  -->
<!DOCTYPE svg PUBLIC "-//W3C//DTD SVG 1.1//EN" "http://www.w3.org/Graphics/SVG/1.1/DTD/svg11.dtd">
<svg version="1.1" id="Layer_1" xmlns="http://www.w3.org/2000/svg" xmlns:xlink="http://www.w3.org/1999/xlink" x="0px" y="0px"
	 viewBox="0 0 150 88" enable-background="new 0 0 150 88" xml:space="preserve">
<g>
	<path fill="#FFD726" d="M30.5,34.9c12.7,0,23,10.3,23,23c0,12.7-10.3,23-23,23c-12.7,0-23-10.3-23-23C7.5,45.3,17.8,34.9,30.5,34.9
		 M30.5,31.5C15.9,31.5,4.1,43.4,4.1,58c0,14.6,11.8,26.5,26.5,26.5C45.1,84.4,57,72.6,57,58C57,43.4,45.1,31.5,30.5,31.5L30.5,31.5
		z"/>
	<path fill="#FFD726" d="M116.2,34.9c12.7,0,23,10.3,23,23c0,12.7-10.3,23-23,23c-12.7,0-23-10.3-23-23
		C93.1,45.3,103.5,34.9,116.2,34.9 M116.2,31.5c-14.6,0-26.5,11.8-26.5,26.5c0,14.6,11.9,26.5,26.5,26.5c14.6,0,26.4-11.8,26.4-26.5
		C142.6,43.4,130.8,31.5,116.2,31.5L116.2,31.5z"/>
	<path fill="#FFD726" d="M55,27.3l0.8,0.2l9.6,32.7l-30.6-4.3L55,27.3 M53.5,23.3L28.7,58.5l41.4,5.8L58.5,24.7L53.5,23.3L53.5,23.3
		z"/>
	<path fill="#FFD726" d="M74.5,62c0,2.9-2.4,5.3-5.3,5.3c-2.9,0-5.3-2.4-5.3-5.3c0-2.9,2.4-5.3,5.3-5.3C72.1,56.6,74.5,59,74.5,62z"
		/>
	<path fill="#FFD726" d="M119.3,58c0,1.7-1.4,3.1-3.1,3.1c-1.7,0-3.1-1.4-3.1-3.1c0-1.7,1.4-3.1,3.1-3.1
		C117.9,54.9,119.3,56.3,119.3,58z"/>
	<path fill="#FFD726" d="M33.6,57.8c0,1.7-1.4,3.1-3.1,3.1c-1.7,0-3.1-1.4-3.1-3.1c0-1.7,1.4-3.1,3.1-3.1
		C32.2,54.7,33.6,56.1,33.6,57.8z"/>
	<polygon fill="#FFD726" points="67.5,50.2 73.4,50.2 73.4,52.2 71.4,52.2 71.5,57.2 65.3,75.2 67.2,75.8 66.4,77.7 60.5,76.3 
		60.5,74.2 63,74.6 66.2,66.4 69.1,56.6 69.1,52.2 67.6,52.1 	"/>
	<path fill="#FFD726" d="M53.6,20.9l-0.1,2.5l4.9,1.3h37.1l1.6,4.7L71.5,57.2c0,0,2.3,2.1,2.5,2.6l24.8-26.3L113.2,58l2.1-3
		c0,0-16.1-28.2-17.1-34.5C99.2,20.6,53.6,20.9,53.6,20.9z"/>
	<path fill="#FFD726" d="M83,3.8v3.1h10.2c0,0,2.7,3-1,3.8c0.8,3.5,1.9,9.8,1.9,9.8h4l-1.9-8.9c0,0,6.6-2.9-1.7-7.9
		C89.5,3.8,83,3.8,83,3.8z"/>
	<path fill="#FFD726" d="M44.6,12.5l21.1,0.4c0,0,7,2.9-8.5,6c0,1.1,0,2.3,0,2.3l-3.3,0L53.9,19c0,0-5-0.2-8.4-3
		C44.3,15.1,43.4,13.6,44.6,12.5z"/>
</g>
</svg>
